<?xml version="1.0" standalone="no"?>
<!DOCTYPE svg PUBLIC "-//W3C//DTD SVG 20010904//EN"
 "http://www.w3.org/TR/2001/REC-SVG-20010904/DTD/svg10.dtd">
<svg version="1.0" xmlns="http://www.w3.org/2000/svg"
 width="640.000000pt" height="640.000000pt" viewBox="0 0 640.000000 640.000000"
 preserveAspectRatio="xMidYMid meet">
<metadata>
Created by potrace 1.11, written by Peter Selinger 2001-2013
</metadata>
<g transform="translate(0.000000,640.000000) scale(0.100000,-0.100000)"
fill="#000000" stroke="none">
<path d="M4926 5213 c-20 -5 -46 -27 -46 -37 0 -3 7 -6 15 -6 9 0 15 -9 15
-25 0 -14 4 -25 10 -25 5 0 7 -6 4 -14 -3 -8 3 -16 15 -19 28 -7 27 -25 -1
-37 -25 -10 -55 -40 -82 -81 -11 -17 -30 -29 -51 -33 -19 -4 -40 -12 -48 -19
-18 -16 -49 -36 -67 -43 -42 -16 -93 -162 -116 -332 -4 -29 -11 -55 -15 -58
-5 -3 -9 -16 -9 -30 0 -13 -9 -57 -21 -97 -12 -39 -23 -84 -26 -99 -3 -16 -10
-28 -15 -28 -5 0 -7 -3 -5 -7 8 -13 -12 -135 -24 -149 -6 -7 -9 -17 -6 -21 4
-7 -15 -130 -40 -258 -4 -16 -7 -51 -7 -78 -1 -26 -4 -47 -7 -47 -11 0 -41
-169 -40 -229 0 -31 -5 -48 -17 -57 -9 -8 -12 -14 -5 -14 12 0 10 -43 -4 -105
-4 -16 -6 -36 -4 -43 1 -8 -2 -19 -7 -25 -6 -7 -9 -29 -8 -49 2 -21 -1 -38 -6
-38 -13 0 -9 -58 5 -63 7 -3 4 -6 -6 -6 -10 -1 -16 -5 -12 -11 3 -5 -3 -18
-13 -28 -22 -22 -17 -36 16 -46 25 -8 28 -3 36 69 9 72 16 115 26 154 5 19 7
38 4 43 -8 13 8 9 45 -11 21 -11 30 -21 22 -25 -6 -4 -12 -19 -12 -34 -1 -17
-3 -21 -6 -9 -2 9 -9 17 -14 17 -12 0 -12 -27 1 -35 11 -7 -3 -35 -33 -69 -17
-20 -17 -21 5 -37 12 -10 26 -15 30 -13 4 3 8 1 8 -4 0 -5 -9 -12 -20 -15 -20
-5 -29 -37 -11 -37 6 0 3 -16 -5 -35 -8 -19 -12 -46 -8 -60 5 -21 3 -25 -15
-25 -14 0 -21 -6 -21 -20 0 -11 -4 -20 -10 -20 -5 0 -10 -5 -10 -11 0 -5 5 -7
10 -4 6 3 10 -3 10 -14 0 -23 16 -28 23 -8 3 8 10 6 21 -8 8 -11 16 -18 16
-15 7 40 7 81 -1 85 -16 11 -10 44 13 67 19 19 26 42 41 128 3 15 9 20 27 20
15 0 12 -38 -6 -65 -15 -23 -15 -27 0 -50 23 -35 32 -31 34 13 3 76 12 102 38
102 19 0 24 -5 24 -26 0 -14 -5 -35 -12 -47 -7 -12 -13 -33 -15 -47 -4 -48
-12 -105 -17 -130 -3 -14 -8 -54 -11 -90 -3 -36 -10 -66 -15 -68 -6 -2 -10
-13 -11 -25 0 -12 -3 -16 -6 -9 -7 18 -25 14 -21 -5 1 -10 -2 -24 -6 -32 -7
-11 -5 -13 7 -8 10 3 17 2 17 -4 0 -6 -9 -13 -20 -16 -35 -9 -22 -40 13 -34 5
1 5 -20 2 -46 -10 -74 -11 -75 -47 -67 -29 6 -31 5 -20 -9 7 -9 21 -13 33 -10
19 5 21 3 15 -23 -4 -16 -9 -61 -11 -99 -6 -87 -12 -144 -25 -215 -23 -129
-54 -404 -53 -465 2 -81 8 -135 16 -135 4 0 6 -4 3 -9 -8 -13 20 -45 32 -37 7
4 12 19 12 33 0 16 7 27 20 30 22 6 28 23 8 23 -7 0 -2 7 10 16 15 10 22 24
20 42 -1 15 4 37 10 48 6 12 9 24 5 27 -3 3 -2 14 2 24 7 17 9 27 17 93 2 14
7 28 11 31 5 3 10 22 12 42 2 20 7 42 12 49 4 7 9 29 10 48 3 53 14 110 22
110 11 0 31 120 27 162 -3 25 1 38 10 42 8 3 14 14 14 25 0 10 9 21 20 24 14
4 20 14 20 34 0 15 4 42 9 60 6 21 5 35 -2 42 -7 7 -8 11 0 11 5 0 18 35 28
77 19 84 42 166 55 198 14 32 23 97 21 142 -1 22 2 49 7 60 6 10 15 44 22 76
9 43 16 57 28 56 11 0 12 -2 5 -6 -24 -9 -13 -25 13 -20 39 7 131 -39 185 -92
61 -60 75 -71 133 -111 45 -30 55 -33 118 -31 37 1 68 -2 68 -7 0 -5 22 -12
49 -16 27 -4 52 -12 54 -19 3 -9 13 -7 37 6 39 21 50 21 92 0 18 -9 41 -20 50
-25 25 -11 72 -10 105 4 15 6 38 10 51 9 16 -2 25 4 29 18 4 15 13 21 33 21
15 0 33 7 41 16 8 9 21 13 35 10 15 -4 26 -1 31 9 6 9 32 17 72 21 50 6 65 11
69 26 2 10 11 18 18 18 8 0 14 4 14 9 0 5 8 7 18 4 14 -3 22 4 32 29 7 18 22
40 33 49 17 14 18 20 7 53 -6 20 -9 49 -5 65 3 17 2 32 -4 36 -6 3 -11 17 -11
31 0 13 -4 24 -9 24 -16 0 -44 71 -32 83 12 12 -2 43 -29 67 -23 20 -31 67
-14 81 10 8 11 15 1 31 -10 16 -9 22 1 25 10 4 9 10 -3 30 -16 23 -16 27 -1
41 14 15 13 19 -20 48 -19 18 -49 36 -67 39 -18 4 -36 11 -42 15 -23 18 -142
28 -285 25 -128 -2 -155 -5 -165 -19 -7 -9 -17 -16 -24 -16 -6 0 -11 -5 -11
-11 0 -7 -12 -9 -34 -5 -33 6 -35 5 -65 -49 -27 -47 -34 -54 -49 -46 -23 12
-134 40 -185 46 -20 2 -47 9 -58 16 -12 6 -42 13 -68 16 -38 3 -50 0 -65 -16
-11 -12 -15 -21 -10 -21 32 0 43 -162 11 -168 -10 -2 -17 -13 -17 -26 0 -12
-9 -28 -20 -36 -11 -8 -20 -20 -20 -28 0 -7 -10 -16 -22 -21 -28 -10 -40 12
-26 48 7 20 16 65 44 216 3 17 12 42 19 57 7 15 10 30 5 33 -8 5 1 60 18 110
6 17 13 54 17 83 3 29 11 65 17 80 6 15 10 34 9 43 -1 9 8 52 20 95 12 44 25
102 30 129 4 28 12 68 19 90 13 45 14 52 31 148 6 37 15 67 20 67 5 0 9 19 9
43 0 23 9 80 21 127 29 119 25 252 -7 264 -8 3 -14 17 -14 31 0 14 -3 25 -7
25 -5 0 -9 23 -11 52 -3 56 -35 111 -91 159 -23 20 -28 32 -24 49 5 18 3 22
-10 17 -9 -3 -18 0 -21 9 -5 14 -16 16 -50 7z m-513 -1933 c7 -25 -28 -48 -37
-25 -7 20 3 45 19 45 7 0 15 -9 18 -20z"/>
<path d="M4856 5161 c-4 -7 -5 -15 -2 -18 9 -9 19 4 14 18 -4 11 -6 11 -12 0z"/>
<path d="M4810 5115 c-7 -14 -10 -28 -6 -32 9 -9 36 25 36 44 0 21 -16 15 -30
-12z"/>
<path d="M3760 4645 c0 -9 11 -26 25 -39 14 -13 25 -27 25 -32 0 -4 -5 -3 -12
4 -7 7 -20 12 -30 12 -9 0 -21 7 -26 16 -9 16 -11 15 -33 -2 -13 -10 -45 -42
-71 -71 -51 -57 -62 -89 -28 -80 23 6 25 -9 10 -62 -9 -34 -28 -56 -65 -77
-21 -11 -85 -127 -85 -151 0 -8 -6 -27 -14 -41 -17 -34 -36 -93 -36 -114 0 -9
-5 -18 -11 -20 -10 -3 -21 -47 -19 -75 2 -25 0 -70 -8 -183 -4 -63 -5 -117 -2
-120 12 -9 18 -50 9 -56 -5 -3 -9 -18 -9 -35 0 -18 -5 -29 -14 -29 -9 0 -12
-8 -8 -25 2 -14 8 -23 12 -20 11 6 22 -24 14 -37 -4 -6 -6 -32 -5 -59 0 -27
-3 -49 -8 -49 -5 0 -12 -7 -15 -16 -4 -10 -2 -13 6 -8 7 5 9 -2 5 -21 -2 -16
0 -37 6 -46 6 -10 8 -21 4 -25 -9 -10 -36 26 -37 48 0 10 -13 30 -28 45 -16
16 -31 36 -35 45 -3 10 -22 28 -41 40 -20 13 -36 31 -36 40 0 9 -4 19 -10 23
-5 3 -17 30 -27 61 -15 50 -54 102 -105 140 -16 13 -80 48 -88 49 -3 0 -19 10
-37 23 -17 12 -34 22 -38 22 -4 0 -13 7 -20 16 -7 10 -27 17 -51 18 -32 1 -38
-2 -36 -16 2 -12 -2 -16 -13 -12 -10 4 -15 0 -15 -15 0 -15 -4 -19 -17 -14
-12 5 -15 2 -10 -10 4 -11 1 -17 -8 -17 -8 0 -15 -3 -15 -7 1 -19 17 -31 43
-31 23 0 28 4 24 19 -3 12 0 19 9 19 17 0 17 -10 4 -44 -5 -14 -16 -26 -25
-26 -19 0 -21 -60 -2 -60 6 0 4 -5 -5 -11 -10 -5 -18 -17 -18 -24 0 -8 -5 -15
-11 -15 -5 0 -7 -4 -4 -10 3 -5 1 -10 -4 -10 -6 0 -11 -9 -11 -19 0 -14 -5
-18 -20 -14 -14 4 -28 -3 -45 -21 -13 -14 -34 -26 -47 -26 -35 0 -68 -11 -68
-23 0 -5 8 -16 18 -23 16 -13 16 -15 0 -28 -10 -7 -18 -18 -18 -25 0 -15 28
-60 57 -90 13 -13 26 -35 29 -48 4 -12 10 -23 15 -23 5 0 9 -5 9 -11 0 -6 11
-20 25 -31 14 -11 25 -26 25 -34 0 -8 8 -14 19 -14 10 0 24 -7 31 -15 7 -8 20
-15 29 -15 9 0 27 -9 41 -20 14 -11 33 -20 42 -20 10 0 42 -13 73 -30 30 -16
55 -25 55 -20 0 5 18 0 39 -11 60 -31 96 -32 129 -4 21 17 32 21 45 14 22 -13
53 4 61 33 3 13 20 39 38 58 36 37 58 74 58 96 0 8 5 14 10 14 16 0 11 -32 -7
-47 -17 -13 -16 -14 5 -8 16 5 22 2 22 -10 0 -19 -25 -47 -34 -38 -10 10 -7
-12 3 -23 15 -15 18 -59 4 -56 -17 3 -16 -16 1 -34 17 -16 14 -76 -4 -82 -5
-2 -10 -15 -10 -28 0 -14 4 -23 9 -20 5 3 11 -1 14 -9 8 -20 0 -57 -15 -66
-10 -6 -8 -12 6 -22 12 -9 17 -20 13 -31 -4 -9 -3 -16 1 -16 4 0 8 -28 8 -62
0 -76 12 -176 24 -203 5 -11 12 -31 16 -45 4 -14 17 -36 30 -49 13 -13 24 -32
24 -42 0 -11 6 -19 13 -19 15 0 21 46 7 55 -15 9 -12 35 5 35 7 0 19 -8 25
-17 9 -15 10 -14 7 8 -1 14 -10 34 -20 43 -28 29 -21 39 23 32 32 -5 42 -3 47
10 8 22 65 10 100 -22 14 -13 31 -23 37 -21 6 2 15 27 21 55 5 28 16 57 23 64
6 6 12 30 12 51 0 30 4 40 20 44 11 3 20 12 20 20 0 8 9 22 20 31 11 10 21 28
24 42 2 14 7 36 10 50 3 14 8 61 10 105 29 482 65 881 85 935 5 14 12 61 15
105 3 44 10 121 16 171 12 104 -7 294 -33 336 -9 12 -18 46 -22 73 -9 66 -34
146 -53 168 -9 10 -23 15 -34 11 -13 -4 -18 0 -18 14 0 19 -38 52 -60 52 -5 0
-10 -7 -10 -15z m-920 -1000 c10 -13 9 -15 -8 -15 -15 0 -20 5 -16 15 4 8 7
15 9 15 1 0 8 -7 15 -15z"/>
<path d="M2666 3618 c-7 -30 -7 -28 2 -27 4 1 6 5 5 10 -2 5 2 9 7 9 6 0 10 7
10 15 0 23 -17 18 -24 -7z"/>
<path d="M2610 3555 c0 -9 9 -15 25 -15 16 0 25 6 25 15 0 9 -9 15 -25 15 -16
0 -25 -6 -25 -15z"/>
<path d="M3365 3559 c-4 -6 -5 -12 -2 -15 2 -3 7 2 10 11 7 17 1 20 -8 4z"/>
<path d="M4405 3190 c3 -5 8 -10 11 -10 2 0 4 5 4 10 0 6 -5 10 -11 10 -5 0
-7 -4 -4 -10z"/>
<path d="M4269 2898 c-1 -13 -1 -26 0 -30 0 -5 -4 -8 -11 -8 -6 0 -3 -9 7 -20
18 -20 18 -21 0 -34 -10 -7 -16 -20 -12 -28 3 -9 1 -20 -5 -26 -5 -5 -11 -31
-13 -58 -2 -31 -9 -50 -20 -56 -12 -7 -15 -17 -10 -36 11 -38 6 -125 -7 -133
-7 -5 -6 -17 5 -38 11 -22 12 -31 4 -31 -13 0 -18 -28 -17 -95 0 -31 -3 -37
-11 -25 -8 12 -9 11 -5 -5 3 -11 -1 -33 -9 -49 -18 -35 -18 -36 -2 -36 11 0
12 -11 7 -47 -5 -27 -6 -51 -3 -56 2 -4 1 -27 -3 -52 -4 -32 -11 -45 -23 -46
-9 -1 -5 -4 9 -9 14 -4 19 -8 13 -9 -7 -1 -13 -12 -13 -26 0 -18 -4 -23 -15
-19 -20 8 -19 -2 3 -34 17 -27 20 -53 9 -82 -3 -8 -7 -33 -10 -56 -4 -32 -1
-43 14 -52 25 -16 31 -15 28 6 -3 33 3 47 10 22 4 -14 13 -24 19 -23 7 2 12
-2 12 -8 0 -5 4 -8 9 -5 11 7 33 -18 29 -34 -2 -7 2 -14 9 -17 22 -8 19 41 -4
60 -13 10 -23 25 -23 33 0 8 -7 14 -15 14 -8 0 -15 7 -15 15 0 8 -4 15 -9 15
-11 0 -21 38 -14 56 7 20 23 17 23 -4 0 -10 3 -22 7 -26 4 -4 8 -15 8 -23 0
-9 6 -18 13 -20 6 -3 12 3 12 12 0 9 7 15 16 13 12 -2 18 7 21 36 3 35 2 38
-12 26 -8 -7 -14 -19 -13 -26 2 -7 -1 -12 -7 -11 -15 3 -12 31 5 44 8 7 24 13
35 13 16 1 15 3 -6 11 -15 6 -29 19 -32 30 -3 12 -10 18 -16 14 -6 -3 -11 1
-11 10 0 9 4 14 9 10 5 -3 12 -1 16 5 4 6 -5 10 -20 10 -14 0 -24 -4 -20 -9 3
-5 0 -13 -6 -17 -9 -5 -10 12 -6 66 3 39 8 75 11 78 3 3 6 0 6 -6 0 -6 7 -9
16 -5 19 7 36 47 28 68 -7 17 -34 21 -34 4 0 -5 5 -7 10 -4 15 9 12 -21 -3
-33 -25 -21 -36 2 -32 71 2 37 6 70 8 74 3 5 8 46 11 93 4 47 11 103 17 124 8
30 8 41 -2 47 -10 6 -9 10 4 15 15 5 17 14 13 45 -3 21 -2 40 2 43 4 2 9 21
10 42 2 20 6 42 9 48 4 6 6 27 4 48 -1 20 3 46 9 57 6 11 12 41 14 66 3 38 1
45 -15 45 -13 0 -19 -8 -20 -22z m-39 -1010 c0 -5 7 -8 15 -8 8 0 15 -4 15
-10 0 -5 -9 -10 -20 -10 -11 0 -19 3 -19 8 3 19 -2 23 -16 12 -13 -11 -15 -8
-15 14 0 24 2 25 20 14 11 -7 20 -16 20 -20z"/>
<path d="M4340 2910 c0 -5 1 -11 2 -12 1 -2 -4 -13 -10 -25 -11 -20 0 -45 11
-26 12 21 18 73 8 73 -6 0 -11 -4 -11 -10z"/>
<path d="M3341 2884 c0 -11 3 -14 6 -6 3 7 2 16 -1 19 -3 4 -6 -2 -5 -13z"/>
<path d="M4450 2870 c0 -5 5 -10 10 -10 6 0 10 5 10 10 0 6 -4 10 -10 10 -5 0
-10 -4 -10 -10z"/>
<path d="M4428 2756 c-25 -19 -22 -23 12 -18 17 2 30 10 30 18 0 18 -20 17
-42 0z"/>
<path d="M4333 2713 c-7 -2 -13 -13 -13 -24 0 -10 -4 -19 -10 -19 -15 0 -12
-47 3 -53 10 -4 10 -6 0 -6 -7 -1 -13 -12 -13 -26 0 -14 -4 -25 -10 -25 -5 0
-10 -7 -10 -15 0 -8 5 -15 11 -15 6 0 8 -8 4 -19 -3 -11 1 -25 10 -34 19 -20
19 -28 0 -21 -18 7 -20 -7 -3 -24 10 -10 8 -14 -8 -18 -16 -4 -20 -12 -16 -29
3 -16 -2 -27 -17 -34 -14 -8 -21 -21 -21 -41 0 -29 1 -30 42 -25 39 5 57 17
58 38 0 4 -7 7 -15 7 -19 0 -19 14 1 34 8 9 12 20 9 26 -3 5 -3 10 2 10 4 0 9
20 11 45 2 28 -1 45 -8 45 -7 0 -4 7 4 16 9 8 16 21 16 27 0 7 -6 4 -14 -5
-16 -22 -36 -5 -29 23 4 14 11 18 24 14 14 -5 19 -1 19 14 0 13 8 23 24 27 14
3 31 20 41 42 10 20 22 45 27 55 15 31 -34 20 -61 -13 -13 -17 -29 -30 -37
-30 -20 0 -17 17 6 33 29 20 8 35 -27 20z"/>
<path d="M4460 2660 c0 -5 5 -10 10 -10 6 0 10 5 10 10 0 6 -4 10 -10 10 -5 0
-10 -4 -10 -10z"/>
<path d="M3351 2554 c0 -11 3 -14 6 -6 3 7 2 16 -1 19 -3 4 -6 -2 -5 -13z"/>
<path d="M4385 2490 c-3 -5 1 -10 9 -10 9 0 16 5 16 10 0 6 -4 10 -9 10 -6 0
-13 -4 -16 -10z"/>
<path d="M3361 2474 c0 -11 3 -14 6 -6 3 7 2 16 -1 19 -3 4 -6 -2 -5 -13z"/>
<path d="M600 2315 l0 -65 95 0 95 0 0 -240 0 -240 85 0 85 0 0 240 0 240 95
0 95 0 0 65 0 65 -275 0 -275 0 0 -65z"/>
<path d="M1251 2358 c-5 -13 -63 -148 -130 -301 -67 -152 -121 -279 -121 -282
0 -3 38 -5 84 -5 l84 0 22 60 22 60 138 0 138 0 24 -60 23 -60 92 0 c51 0 93
3 93 8 0 4 -59 141 -132 305 l-132 297 -98 0 c-93 0 -99 -1 -107 -22z m146
-243 l41 -105 -89 0 -89 0 21 53 c12 28 30 76 41 105 12 28 24 52 27 52 3 0
25 -47 48 -105z"/>
<path d="M1737 2374 c-4 -4 -7 -142 -7 -306 l0 -298 90 0 90 0 -2 303 -3 302
-80 3 c-45 1 -84 0 -88 -4z"/>
<path d="M1990 2076 l0 -306 80 0 80 0 0 109 0 109 113 3 c90 3 119 8 147 25
125 73 113 285 -20 342 -25 11 -84 17 -217 20 l-183 4 0 -306z m298 158 c16
-11 22 -25 22 -54 0 -52 -26 -70 -102 -70 l-58 0 0 70 0 70 58 0 c36 0 66 -6
80 -16z"/>
<path d="M2530 2075 l0 -305 225 0 225 0 0 65 0 65 -140 0 -140 0 0 55 0 55
130 0 130 0 0 65 0 65 -130 0 -130 0 0 55 0 55 140 0 140 0 0 65 0 65 -225 0
-225 0 0 -305z"/>
<path d="M3030 2075 l0 -305 85 0 85 0 0 305 0 305 -85 0 -85 0 0 -305z"/>
<path d="M4300 2236 c0 -14 5 -26 10 -26 6 0 10 9 10 19 0 11 -4 23 -10 26 -6
4 -10 -5 -10 -19z"/>
<path d="M4362 2229 c2 -6 8 -10 13 -10 5 0 11 4 13 10 2 6 -4 11 -13 11 -9 0
-15 -5 -13 -11z"/>
<path d="M4235 2210 c-3 -5 1 -10 9 -10 9 0 16 5 16 10 0 6 -4 10 -9 10 -6 0
-13 -4 -16 -10z"/>
<path d="M4260 2190 c0 -5 -3 -9 -7 -7 -5 1 -9 -2 -11 -8 -1 -5 8 -10 20 -10
37 -1 50 -13 38 -36 -8 -15 -7 -19 4 -19 17 0 29 27 16 35 -6 4 -10 17 -10 31
0 19 -5 24 -25 24 -14 0 -25 -4 -25 -10z"/>
<path d="M4340 2079 c0 -5 5 -7 10 -4 6 3 10 8 10 11 0 2 -4 4 -10 4 -5 0 -10
-5 -10 -11z"/>
<path d="M3480 2056 c0 -11 -15 -16 -62 -19 l-63 -3 63 -2 c73 -2 83 -19 15
-25 -27 -2 3 -4 66 -5 100 -2 112 0 101 13 -10 13 -9 15 10 15 13 0 20 5 17
13 -2 6 -13 10 -23 9 -72 -13 -95 -14 -92 -1 2 7 -5 15 -14 17 -11 2 -18 -2
-18 -12z m85 -36 c-3 -5 -17 -10 -31 -10 -13 0 -24 5 -24 10 0 6 14 10 31 10
17 0 28 -4 24 -10z"/>
<path d="M3766 2063 c-3 -4 -6 -24 -6 -45 0 -38 0 -38 -40 -38 -22 0 -40 -4
-40 -10 0 -5 18 -10 40 -10 l40 0 0 -54 0 -53 -45 -13 c-42 -12 -57 -31 -35
-45 6 -3 10 -2 10 3 0 8 50 32 66 32 1 0 4 -15 6 -32 2 -18 8 -33 13 -33 15 0
23 294 8 299 -6 3 -14 2 -17 -1z"/>
<path d="M3842 1923 l3 -148 54 -3 c61 -4 73 3 65 36 -7 25 -24 30 -24 7 0
-16 -43 -31 -59 -20 -6 3 -11 37 -11 74 l0 68 45 29 c45 28 53 38 36 48 -5 4
-24 -9 -43 -26 l-33 -33 -5 54 c-3 32 -10 56 -18 59 -10 3 -12 -28 -10 -145z"/>
<path d="M4290 2018 c0 -27 4 -34 20 -35 11 -1 20 2 20 8 0 5 -5 9 -11 9 -5 0
-7 5 -4 10 3 6 -1 17 -9 26 -15 14 -16 12 -16 -18z"/>
<path d="M4248 2013 c7 -3 16 -2 19 1 4 3 -2 6 -13 5 -11 0 -14 -3 -6 -6z"/>
<path d="M3410 1959 c0 -24 -4 -30 -17 -27 -11 2 -23 -6 -30 -20 -19 -36 -15
-50 6 -24 17 20 27 22 103 20 l83 -2 -80 -6 c-44 -3 -70 -7 -57 -8 35 -3 28
-32 -8 -32 -31 0 -35 -6 -24 -34 4 -11 19 -16 50 -16 32 0 44 -4 44 -15 0 -10
-17 -15 -67 -18 -38 -2 -1 -4 82 -5 139 -2 148 -1 133 15 -14 13 -20 14 -32 4
-18 -15 -88 -10 -94 7 -2 8 11 12 49 12 39 0 50 3 42 11 -6 6 -9 18 -6 25 3 8
-6 19 -23 26 -22 10 -28 10 -32 0 -2 -6 -20 -12 -39 -12 -30 0 -34 2 -23 15 8
10 31 15 67 15 34 0 52 4 48 10 -3 6 1 10 9 10 10 0 13 -6 9 -17 -6 -14 -3
-14 19 3 32 23 19 47 -19 38 -24 -6 -25 -5 -18 25 l7 31 -91 0 -91 0 0 -31z
m117 4 c-20 -2 -52 -2 -70 0 -17 2 0 4 38 4 39 0 53 -2 32 -4z m0 -30 c-20 -2
-52 -2 -70 0 -17 2 0 4 38 4 39 0 53 -2 32 -4z m41 -95 c-5 -15 -68 -24 -68
-9 0 12 18 19 48 20 15 1 22 -4 20 -11z m-88 -8 c0 -5 -19 -10 -42 -9 -37 1
-39 2 -18 9 36 12 60 12 60 0z"/>
<path d="M4126 1871 c-4 -7 -5 -15 -2 -18 9 -9 19 4 14 18 -4 11 -6 11 -12 0z"/>
<path d="M4121 1647 c-6 -16 -16 -37 -21 -48 -7 -12 -7 -19 -1 -19 5 0 11 8
14 18 2 9 3 -41 1 -113 -5 -185 -4 -317 2 -327 3 -4 14 -8 24 -8 14 0 18 -5
13 -16 -5 -13 -7 -13 -14 -2 -7 11 -11 10 -19 -2 -5 -8 -10 -25 -10 -37 0 -24
15 -39 24 -24 4 6 18 5 36 -2 19 -7 33 -8 39 -2 6 6 11 72 13 147 3 128 3 136
-14 127 -17 -9 -18 -2 -17 118 2 214 3 206 -26 201 -13 -3 -26 0 -28 6 -3 6
-10 -2 -16 -17z m25 -34 c-10 -10 -19 5 -10 18 6 11 8 11 12 0 2 -7 1 -15 -2
-18z"/>
<path d="M4215 1650 c-3 -5 -2 -10 4 -10 5 0 13 5 16 10 3 6 2 10 -4 10 -5 0
-13 -4 -16 -10z"/>
<path d="M4256 1623 c-14 -15 -5 -43 14 -43 11 0 20 5 20 11 0 15 -26 39 -34
32z"/>
<path d="M4212 1599 c2 -7 10 -15 17 -17 8 -3 12 1 9 9 -2 7 -10 15 -17 17 -8
3 -12 -1 -9 -9z"/>
<path d="M4233 1563 c-14 -3 -23 -12 -23 -23 0 -12 7 -18 23 -17 12 0 30 -3
40 -7 12 -6 17 -4 17 9 0 15 -24 47 -32 44 -2 -1 -13 -4 -25 -6z"/>
<path d="M4210 1480 c0 -21 15 -27 25 -10 3 6 1 10 -5 10 -6 0 -8 5 -5 10 3 6
1 10 -4 10 -6 0 -11 -9 -11 -20z"/>
<path d="M4243 1435 c0 -14 3 -25 7 -25 11 0 21 30 14 41 -10 17 -21 9 -21
-16z"/>
<path d="M4240 1390 c-8 -5 -4 -9 11 -13 13 -4 27 -3 32 2 11 11 -27 21 -43
11z"/>
<path d="M4396 1345 c4 -8 8 -15 10 -15 2 0 4 7 4 15 0 8 -4 15 -10 15 -5 0
-7 -7 -4 -15z"/>
<path d="M4426 1313 c-4 -9 -2 -21 4 -27 7 -7 10 -2 10 17 0 31 -5 34 -14 10z"/>
<path d="M4395 1290 c-3 -5 -1 -10 4 -10 6 0 11 5 11 10 0 6 -2 10 -4 10 -3 0
-8 -4 -11 -10z"/>
</g>
</svg>
